<<<<<<< HEAD:Problemas Mestrado/Processos/AS_IS_TO_BE_Planej_Subst_Medidor.drawio
<<<<<<< HEAD
<<<<<<< HEAD
<<<<<<< HEAD
<mxfile host="app.diagrams.net" modified="2023-02-25T22:06:13.011Z" agent="5.0 (Windows)" etag="cawTPKmti508R9JRmI1s" version="20.8.23" type="github" pages="2">
  <diagram name="Processos" id="c7488fd3-1785-93aa-aadb-54a6760d102a">
    <mxGraphModel dx="1674" dy="739" grid="1" gridSize="10" guides="1" tooltips="1" connect="1" arrows="1" fold="1" page="1" pageScale="1" pageWidth="1100" pageHeight="850" background="none" math="0" shadow="0">
=======
<mxfile host="app.diagrams.net" modified="2023-03-04T18:46:38.371Z" agent="5.0 (Windows)" etag="UsZx0RfmyFglgR8Eetoc" version="21.0.2" type="github" pages="3">
=======
<mxfile host="app.diagrams.net" modified="2023-03-04T20:21:31.029Z" agent="5.0 (Windows)" etag="cHt-Aouzo-NrBx6uBVuZ" version="21.0.2" type="github" pages="3">
>>>>>>> da02563532bf034e9ec01bb39efb3e0d525cd890
=======
<mxfile host="app.diagrams.net" modified="2023-03-04T20:22:33.228Z" agent="5.0 (Windows)" etag="FkOTNfVlGaADnU7O6WJx" version="21.0.2" type="github" pages="3">
>>>>>>> 3fd234dcac5d94a9d8a3375c7190ea1ff2bfc3b5:Problemas Mestrado/Processos/variaveis substituição medidor.drawio
  <diagram name="AS IS" id="c7488fd3-1785-93aa-aadb-54a6760d102a">
    <mxGraphModel dx="1434" dy="754" grid="1" gridSize="10" guides="1" tooltips="1" connect="1" arrows="1" fold="1" page="1" pageScale="1" pageWidth="1100" pageHeight="850" background="none" math="0" shadow="0">
>>>>>>> 8e42b1bda5e58429338b6d5e65ea2cf3ade2bdc5
      <root>
        <mxCell id="0" />
        <mxCell id="1" parent="0" />
        <mxCell id="2b4e8129b02d487f-1" value="Macroprocesso de substituição de medidores" style="swimlane;html=1;childLayout=stackLayout;horizontal=1;startSize=20;horizontalStack=0;rounded=0;shadow=0;labelBackgroundColor=none;strokeWidth=1;fontFamily=Verdana;fontSize=8;align=center;" parent="1" vertex="1">
          <mxGeometry x="180" y="70" width="680" height="200" as="geometry" />
        </mxCell>
        <mxCell id="2b4e8129b02d487f-2" value="Gemed" style="swimlane;html=1;startSize=20;horizontal=0;" parent="2b4e8129b02d487f-1" vertex="1">
          <mxGeometry y="20" width="680" height="150" as="geometry">
            <mxRectangle y="20" width="680" height="30" as="alternateBounds" />
          </mxGeometry>
        </mxCell>
        <mxCell id="2b4e8129b02d487f-18" style="edgeStyle=orthogonalEdgeStyle;rounded=0;html=1;labelBackgroundColor=none;startArrow=none;startFill=0;startSize=5;endArrow=classicThin;endFill=1;endSize=5;jettySize=auto;orthogonalLoop=1;strokeWidth=1;fontFamily=Verdana;fontSize=8" parent="2b4e8129b02d487f-2" source="2b4e8129b02d487f-5" target="2b4e8129b02d487f-6" edge="1">
          <mxGeometry relative="1" as="geometry" />
        </mxCell>
        <mxCell id="I3D60cO1Wd3O6cVHsPJO-1" value="" style="edgeStyle=orthogonalEdgeStyle;rounded=0;orthogonalLoop=1;jettySize=auto;html=1;" parent="2b4e8129b02d487f-2" source="2b4e8129b02d487f-5" target="2b4e8129b02d487f-6" edge="1">
          <mxGeometry relative="1" as="geometry" />
        </mxCell>
        <mxCell id="2b4e8129b02d487f-5" value="" style="ellipse;whiteSpace=wrap;html=1;rounded=0;shadow=0;labelBackgroundColor=none;strokeWidth=1;fontFamily=Verdana;fontSize=8;align=center;fillColor=#6d8764;fontColor=#ffffff;strokeColor=#3A5431;" parent="2b4e8129b02d487f-2" vertex="1">
          <mxGeometry x="60" y="60" width="30" height="30" as="geometry" />
        </mxCell>
        <mxCell id="2b4e8129b02d487f-6" value="Planejar compra" style="rounded=1;whiteSpace=wrap;html=1;shadow=0;labelBackgroundColor=none;strokeWidth=1;fontFamily=Verdana;fontSize=8;align=center;" parent="2b4e8129b02d487f-2" vertex="1">
          <mxGeometry x="120" y="56.49999999999997" width="70" height="37" as="geometry" />
        </mxCell>
        <mxCell id="I3D60cO1Wd3O6cVHsPJO-70" style="edgeStyle=orthogonalEdgeStyle;rounded=0;orthogonalLoop=1;jettySize=auto;html=1;entryX=0;entryY=0.5;entryDx=0;entryDy=0;fontSize=10;" parent="2b4e8129b02d487f-2" target="I3D60cO1Wd3O6cVHsPJO-5" edge="1">
          <mxGeometry relative="1" as="geometry">
            <mxPoint x="293.0000000000002" y="75" as="sourcePoint" />
            <mxPoint x="339" y="75" as="targetPoint" />
          </mxGeometry>
        </mxCell>
        <mxCell id="2b4e8129b02d487f-7" value="Distribuir medidores" style="rounded=1;whiteSpace=wrap;html=1;shadow=0;labelBackgroundColor=none;strokeWidth=1;fontFamily=Verdana;fontSize=8;align=center;" parent="2b4e8129b02d487f-2" vertex="1">
          <mxGeometry x="230" y="56.49999999999997" width="70" height="37" as="geometry" />
        </mxCell>
        <object label="" id="I3D60cO1Wd3O6cVHsPJO-12">
          <mxCell style="edgeStyle=orthogonalEdgeStyle;rounded=0;orthogonalLoop=1;jettySize=auto;html=1;entryX=0;entryY=0.5;entryDx=0;entryDy=0;exitX=1;exitY=0.5;exitDx=0;exitDy=0;" parent="2b4e8129b02d487f-2" source="I3D60cO1Wd3O6cVHsPJO-5" target="I3D60cO1Wd3O6cVHsPJO-4" edge="1">
            <mxGeometry relative="1" as="geometry">
              <mxPoint x="428.9999999999998" y="60" as="sourcePoint" />
              <mxPoint x="363.6199999999999" y="56.5" as="targetPoint" />
              <Array as="points">
                <mxPoint x="370" y="75" />
              </Array>
            </mxGeometry>
          </mxCell>
        </object>
        <mxCell id="2b4e8129b02d487f-11" value="" style="ellipse;whiteSpace=wrap;html=1;rounded=0;shadow=0;labelBackgroundColor=none;strokeWidth=2;fontFamily=Verdana;fontSize=8;align=center;fillColor=#e51400;fontColor=#ffffff;strokeColor=#B20000;" parent="2b4e8129b02d487f-2" vertex="1">
          <mxGeometry x="604" y="108.5" width="30" height="30" as="geometry" />
        </mxCell>
        <mxCell id="2b4e8129b02d487f-24" style="edgeStyle=orthogonalEdgeStyle;rounded=0;html=1;labelBackgroundColor=none;startArrow=none;startFill=0;startSize=5;endArrow=classicThin;endFill=1;endSize=5;jettySize=auto;orthogonalLoop=1;strokeWidth=1;fontFamily=Verdana;fontSize=8;entryX=0;entryY=0.5;entryDx=0;entryDy=0;" parent="2b4e8129b02d487f-2" source="2b4e8129b02d487f-6" target="2b4e8129b02d487f-7" edge="1">
          <mxGeometry relative="1" as="geometry" />
        </mxCell>
        <mxCell id="I3D60cO1Wd3O6cVHsPJO-72" style="edgeStyle=orthogonalEdgeStyle;rounded=0;orthogonalLoop=1;jettySize=auto;html=1;entryX=0.5;entryY=0;entryDx=0;entryDy=0;fontSize=10;exitX=0.5;exitY=0;exitDx=0;exitDy=0;" parent="2b4e8129b02d487f-2" source="I3D60cO1Wd3O6cVHsPJO-4" target="2b4e8129b02d487f-7" edge="1">
          <mxGeometry relative="1" as="geometry">
            <Array as="points">
              <mxPoint x="426" y="20" />
              <mxPoint x="265" y="20" />
            </Array>
          </mxGeometry>
        </mxCell>
        <mxCell id="I3D60cO1Wd3O6cVHsPJO-4" value="Recondicionar medidores" style="rounded=1;whiteSpace=wrap;html=1;shadow=0;labelBackgroundColor=none;strokeWidth=1;fontFamily=Verdana;fontSize=8;align=center;" parent="2b4e8129b02d487f-2" vertex="1">
          <mxGeometry x="391" y="56" width="70" height="37" as="geometry" />
        </mxCell>
        <mxCell id="I3D60cO1Wd3O6cVHsPJO-5" value="" style="shape=mxgraph.bpmn.shape;html=1;verticalLabelPosition=bottom;labelBackgroundColor=#ffffff;verticalAlign=top;perimeter=rhombusPerimeter;background=gateway;outline=none;symbol=parallelGw;rounded=1;shadow=0;strokeWidth=1;fontFamily=Verdana;fontSize=8;align=center;" parent="2b4e8129b02d487f-2" vertex="1">
          <mxGeometry x="324" y="60" width="30" height="30" as="geometry" />
        </mxCell>
        <mxCell id="I3D60cO1Wd3O6cVHsPJO-13" value="Sim" style="text;html=1;strokeColor=none;fillColor=none;align=center;verticalAlign=middle;whiteSpace=wrap;rounded=0;" parent="2b4e8129b02d487f-2" vertex="1">
          <mxGeometry x="340" y="73" width="60" height="20" as="geometry" />
        </mxCell>
        <mxCell id="I3D60cO1Wd3O6cVHsPJO-15" value="&lt;font style=&quot;font-size: 10px;&quot;&gt;É possível recuperar ?&lt;/font&gt;" style="text;html=1;strokeColor=none;fillColor=none;align=center;verticalAlign=middle;whiteSpace=wrap;rounded=0;imageAlign=center;" parent="2b4e8129b02d487f-2" vertex="1">
          <mxGeometry x="300" y="29" width="80" height="29" as="geometry" />
        </mxCell>
        <mxCell id="I3D60cO1Wd3O6cVHsPJO-14" value="Não" style="text;html=1;strokeColor=none;fillColor=none;align=center;verticalAlign=middle;whiteSpace=wrap;rounded=0;" parent="2b4e8129b02d487f-2" vertex="1">
          <mxGeometry x="329" y="124" width="60" height="20" as="geometry" />
        </mxCell>
        <mxCell id="I3D60cO1Wd3O6cVHsPJO-11" style="edgeStyle=orthogonalEdgeStyle;rounded=0;orthogonalLoop=1;jettySize=auto;html=1;exitX=1;exitY=0.5;exitDx=0;exitDy=0;entryX=0;entryY=0.5;entryDx=0;entryDy=0;" parent="1" source="I3D60cO1Wd3O6cVHsPJO-6" target="2b4e8129b02d487f-11" edge="1">
          <mxGeometry relative="1" as="geometry">
            <mxPoint x="721" y="212.0344827586207" as="sourcePoint" />
            <mxPoint x="740" y="217" as="targetPoint" />
            <Array as="points">
              <mxPoint x="642" y="214" />
              <mxPoint x="730" y="214" />
            </Array>
          </mxGeometry>
        </mxCell>
        <mxCell id="I3D60cO1Wd3O6cVHsPJO-6" value="Descartar" style="rounded=1;whiteSpace=wrap;html=1;shadow=0;labelBackgroundColor=none;strokeWidth=1;fontFamily=Verdana;fontSize=8;align=center;" parent="1" vertex="1">
          <mxGeometry x="572" y="198.49999999999997" width="70" height="37" as="geometry" />
        </mxCell>
        <mxCell id="I3D60cO1Wd3O6cVHsPJO-10" style="edgeStyle=orthogonalEdgeStyle;rounded=0;orthogonalLoop=1;jettySize=auto;html=1;exitX=0.5;exitY=1;exitDx=0;exitDy=0;entryX=0;entryY=0.5;entryDx=0;entryDy=0;" parent="1" source="I3D60cO1Wd3O6cVHsPJO-5" target="I3D60cO1Wd3O6cVHsPJO-6" edge="1">
          <mxGeometry relative="1" as="geometry">
            <mxPoint x="670" y="165" as="targetPoint" />
            <Array as="points">
              <mxPoint x="519" y="217" />
            </Array>
          </mxGeometry>
        </mxCell>
        <mxCell id="I3D60cO1Wd3O6cVHsPJO-16" value="Planejar Compra" style="swimlane;html=1;childLayout=stackLayout;horizontal=1;startSize=20;horizontalStack=0;rounded=0;shadow=0;labelBackgroundColor=none;strokeWidth=1;fontFamily=Verdana;fontSize=8;align=center;" parent="1" vertex="1">
          <mxGeometry x="180" y="287" width="680" height="153" as="geometry">
            <mxRectangle x="180" y="287" width="120" height="20" as="alternateBounds" />
          </mxGeometry>
        </mxCell>
        <mxCell id="I3D60cO1Wd3O6cVHsPJO-17" value="Gemed" style="swimlane;html=1;startSize=20;horizontal=0;" parent="I3D60cO1Wd3O6cVHsPJO-16" vertex="1">
          <mxGeometry y="20" width="680" height="130" as="geometry">
            <mxRectangle y="20" width="680" height="30" as="alternateBounds" />
          </mxGeometry>
        </mxCell>
        <mxCell id="vjkhycGocfXqffDEfwFu-1" value="Levantar quantitativo total por tipo de hidrometro" style="rounded=1;whiteSpace=wrap;html=1;shadow=0;labelBackgroundColor=none;strokeWidth=1;fontFamily=Verdana;fontSize=8;align=center;" parent="I3D60cO1Wd3O6cVHsPJO-17" vertex="1">
          <mxGeometry x="120" y="48" width="70" height="47" as="geometry" />
        </mxCell>
        <mxCell id="vjkhycGocfXqffDEfwFu-26" style="edgeStyle=orthogonalEdgeStyle;rounded=0;orthogonalLoop=1;jettySize=auto;html=1;entryX=0;entryY=0.5;entryDx=0;entryDy=0;" parent="I3D60cO1Wd3O6cVHsPJO-17" source="I3D60cO1Wd3O6cVHsPJO-32" target="vjkhycGocfXqffDEfwFu-25" edge="1">
          <mxGeometry relative="1" as="geometry" />
        </mxCell>
        <mxCell id="I3D60cO1Wd3O6cVHsPJO-32" value="Realizar compra" style="rounded=1;whiteSpace=wrap;html=1;shadow=0;labelBackgroundColor=none;strokeWidth=1;fontFamily=Verdana;fontSize=8;align=center;" parent="I3D60cO1Wd3O6cVHsPJO-17" vertex="1">
          <mxGeometry x="350" y="53" width="70" height="37" as="geometry" />
        </mxCell>
        <mxCell id="vjkhycGocfXqffDEfwFu-25" value="" style="ellipse;whiteSpace=wrap;html=1;rounded=0;shadow=0;labelBackgroundColor=none;strokeWidth=2;fontFamily=Verdana;fontSize=8;align=center;fillColor=#e51400;fontColor=#ffffff;strokeColor=#B20000;" parent="I3D60cO1Wd3O6cVHsPJO-17" vertex="1">
          <mxGeometry x="468" y="56.5" width="30" height="30" as="geometry" />
        </mxCell>
        <mxCell id="vjkhycGocfXqffDEfwFu-30" value="" style="edgeStyle=orthogonalEdgeStyle;rounded=0;orthogonalLoop=1;jettySize=auto;html=1;" parent="I3D60cO1Wd3O6cVHsPJO-17" source="vjkhycGocfXqffDEfwFu-28" target="vjkhycGocfXqffDEfwFu-1" edge="1">
          <mxGeometry relative="1" as="geometry" />
        </mxCell>
        <mxCell id="vjkhycGocfXqffDEfwFu-28" value="" style="ellipse;whiteSpace=wrap;html=1;rounded=0;shadow=0;labelBackgroundColor=none;strokeWidth=1;fontFamily=Verdana;fontSize=8;align=center;fillColor=#6d8764;fontColor=#ffffff;strokeColor=#3A5431;" parent="I3D60cO1Wd3O6cVHsPJO-17" vertex="1">
          <mxGeometry x="50" y="56.5" width="30" height="30" as="geometry" />
        </mxCell>
        <mxCell id="I3D60cO1Wd3O6cVHsPJO-36" value="Distribuir medidores" style="swimlane;html=1;childLayout=stackLayout;horizontal=1;startSize=20;horizontalStack=0;rounded=0;shadow=0;labelBackgroundColor=none;strokeWidth=1;fontFamily=Verdana;fontSize=8;align=center;" parent="1" vertex="1">
          <mxGeometry x="180" y="674" width="680" height="271" as="geometry" />
        </mxCell>
        <mxCell id="I3D60cO1Wd3O6cVHsPJO-37" value="Gemed" style="swimlane;html=1;startSize=20;horizontal=0;" parent="I3D60cO1Wd3O6cVHsPJO-36" vertex="1">
          <mxGeometry y="20" width="680" height="150" as="geometry">
            <mxRectangle y="20" width="680" height="30" as="alternateBounds" />
          </mxGeometry>
        </mxCell>
        <mxCell id="I3D60cO1Wd3O6cVHsPJO-38" style="edgeStyle=orthogonalEdgeStyle;rounded=0;html=1;labelBackgroundColor=none;startArrow=none;startFill=0;startSize=5;endArrow=classicThin;endFill=1;endSize=5;jettySize=auto;orthogonalLoop=1;strokeWidth=1;fontFamily=Verdana;fontSize=8" parent="I3D60cO1Wd3O6cVHsPJO-37" source="I3D60cO1Wd3O6cVHsPJO-40" target="I3D60cO1Wd3O6cVHsPJO-41" edge="1">
          <mxGeometry relative="1" as="geometry" />
        </mxCell>
        <mxCell id="I3D60cO1Wd3O6cVHsPJO-39" value="" style="edgeStyle=orthogonalEdgeStyle;rounded=0;orthogonalLoop=1;jettySize=auto;html=1;" parent="I3D60cO1Wd3O6cVHsPJO-37" source="I3D60cO1Wd3O6cVHsPJO-40" target="I3D60cO1Wd3O6cVHsPJO-41" edge="1">
          <mxGeometry relative="1" as="geometry" />
        </mxCell>
        <mxCell id="I3D60cO1Wd3O6cVHsPJO-40" value="" style="ellipse;whiteSpace=wrap;html=1;rounded=0;shadow=0;labelBackgroundColor=none;strokeWidth=1;fontFamily=Verdana;fontSize=8;align=center;fillColor=#6d8764;fontColor=#ffffff;strokeColor=#3A5431;" parent="I3D60cO1Wd3O6cVHsPJO-37" vertex="1">
          <mxGeometry x="36" y="60" width="30" height="30" as="geometry" />
        </mxCell>
        <mxCell id="I3D60cO1Wd3O6cVHsPJO-41" value="Informar qtd. medidores por UN" style="rounded=1;whiteSpace=wrap;html=1;shadow=0;labelBackgroundColor=none;strokeWidth=1;fontFamily=Verdana;fontSize=8;align=center;" parent="I3D60cO1Wd3O6cVHsPJO-37" vertex="1">
          <mxGeometry x="96" y="56.49999999999997" width="70" height="37" as="geometry" />
        </mxCell>
        <mxCell id="I3D60cO1Wd3O6cVHsPJO-42" value="Entregar medidores" style="rounded=1;whiteSpace=wrap;html=1;shadow=0;labelBackgroundColor=none;strokeWidth=1;fontFamily=Verdana;fontSize=8;align=center;" parent="I3D60cO1Wd3O6cVHsPJO-37" vertex="1">
          <mxGeometry x="225" y="56.5" width="80" height="37" as="geometry" />
        </mxCell>
        <mxCell id="I3D60cO1Wd3O6cVHsPJO-44" value="" style="ellipse;whiteSpace=wrap;html=1;rounded=0;shadow=0;labelBackgroundColor=none;strokeWidth=2;fontFamily=Verdana;fontSize=8;align=center;fillColor=#e51400;fontColor=#ffffff;strokeColor=#B20000;" parent="I3D60cO1Wd3O6cVHsPJO-37" vertex="1">
          <mxGeometry x="580" y="61" width="30" height="30" as="geometry" />
        </mxCell>
        <mxCell id="I3D60cO1Wd3O6cVHsPJO-46" style="edgeStyle=orthogonalEdgeStyle;rounded=0;html=1;labelBackgroundColor=none;startArrow=none;startFill=0;startSize=5;endArrow=classicThin;endFill=1;endSize=5;jettySize=auto;orthogonalLoop=1;strokeWidth=1;fontFamily=Verdana;fontSize=8" parent="I3D60cO1Wd3O6cVHsPJO-37" source="I3D60cO1Wd3O6cVHsPJO-42" target="I3D60cO1Wd3O6cVHsPJO-48" edge="1">
          <mxGeometry relative="1" as="geometry">
            <mxPoint x="320" y="70" as="targetPoint" />
          </mxGeometry>
        </mxCell>
        <mxCell id="I3D60cO1Wd3O6cVHsPJO-48" value="Selecionar clientes baseado no pop 067" style="rounded=1;whiteSpace=wrap;html=1;shadow=0;labelBackgroundColor=none;strokeWidth=1;fontFamily=Verdana;fontSize=8;align=center;" parent="I3D60cO1Wd3O6cVHsPJO-37" vertex="1">
          <mxGeometry x="344" y="56.5" width="70" height="37" as="geometry" />
        </mxCell>
        <mxCell id="I3D60cO1Wd3O6cVHsPJO-73" style="edgeStyle=orthogonalEdgeStyle;rounded=0;orthogonalLoop=1;jettySize=auto;html=1;fontSize=10;entryX=0;entryY=0.5;entryDx=0;entryDy=0;" parent="I3D60cO1Wd3O6cVHsPJO-37" source="I3D60cO1Wd3O6cVHsPJO-68" target="I3D60cO1Wd3O6cVHsPJO-44" edge="1">
          <mxGeometry relative="1" as="geometry">
            <mxPoint x="600" y="77" as="targetPoint" />
          </mxGeometry>
        </mxCell>
        <mxCell id="I3D60cO1Wd3O6cVHsPJO-68" value="Realizar testes de bancada" style="rounded=1;whiteSpace=wrap;html=1;shadow=0;labelBackgroundColor=none;strokeWidth=1;fontFamily=Verdana;fontSize=8;align=center;" parent="I3D60cO1Wd3O6cVHsPJO-37" vertex="1">
          <mxGeometry x="459" y="56.5" width="70" height="37" as="geometry" />
        </mxCell>
        <mxCell id="I3D60cO1Wd3O6cVHsPJO-60" value="UN" style="swimlane;horizontal=0;whiteSpace=wrap;html=1;fontSize=10;startSize=20;" parent="I3D60cO1Wd3O6cVHsPJO-36" vertex="1">
          <mxGeometry y="170" width="680" height="100" as="geometry" />
        </mxCell>
        <mxCell id="I3D60cO1Wd3O6cVHsPJO-56" value="Selecionar localidades/qtd." style="rounded=1;whiteSpace=wrap;html=1;shadow=0;labelBackgroundColor=none;strokeWidth=1;fontFamily=Verdana;fontSize=8;align=center;" parent="I3D60cO1Wd3O6cVHsPJO-60" vertex="1">
          <mxGeometry x="159" y="30" width="80" height="37" as="geometry" />
        </mxCell>
        <mxCell id="I3D60cO1Wd3O6cVHsPJO-52" value="Substituir medidores" style="rounded=1;whiteSpace=wrap;html=1;shadow=0;labelBackgroundColor=none;strokeWidth=1;fontFamily=Verdana;fontSize=8;align=center;" parent="I3D60cO1Wd3O6cVHsPJO-60" vertex="1">
          <mxGeometry x="345" y="30" width="70" height="37" as="geometry" />
        </mxCell>
        <mxCell id="I3D60cO1Wd3O6cVHsPJO-58" style="edgeStyle=orthogonalEdgeStyle;rounded=0;orthogonalLoop=1;jettySize=auto;html=1;entryX=0;entryY=0.5;entryDx=0;entryDy=0;fontSize=10;exitX=0.5;exitY=1;exitDx=0;exitDy=0;" parent="I3D60cO1Wd3O6cVHsPJO-36" source="I3D60cO1Wd3O6cVHsPJO-41" target="I3D60cO1Wd3O6cVHsPJO-56" edge="1">
          <mxGeometry relative="1" as="geometry" />
        </mxCell>
        <mxCell id="I3D60cO1Wd3O6cVHsPJO-61" style="edgeStyle=orthogonalEdgeStyle;rounded=0;orthogonalLoop=1;jettySize=auto;html=1;entryX=0.5;entryY=1;entryDx=0;entryDy=0;fontSize=10;exitX=1;exitY=0.5;exitDx=0;exitDy=0;" parent="I3D60cO1Wd3O6cVHsPJO-36" source="I3D60cO1Wd3O6cVHsPJO-56" target="I3D60cO1Wd3O6cVHsPJO-42" edge="1">
          <mxGeometry relative="1" as="geometry" />
        </mxCell>
        <mxCell id="I3D60cO1Wd3O6cVHsPJO-47" style="edgeStyle=orthogonalEdgeStyle;rounded=0;orthogonalLoop=1;jettySize=auto;html=1;entryX=0.5;entryY=0;entryDx=0;entryDy=0;" parent="I3D60cO1Wd3O6cVHsPJO-36" source="I3D60cO1Wd3O6cVHsPJO-48" target="I3D60cO1Wd3O6cVHsPJO-52" edge="1">
          <mxGeometry relative="1" as="geometry">
            <mxPoint x="385" y="200" as="targetPoint" />
          </mxGeometry>
        </mxCell>
        <mxCell id="I3D60cO1Wd3O6cVHsPJO-69" style="edgeStyle=orthogonalEdgeStyle;rounded=0;orthogonalLoop=1;jettySize=auto;html=1;entryX=0.5;entryY=1;entryDx=0;entryDy=0;fontSize=10;exitX=0.5;exitY=0;exitDx=0;exitDy=0;" parent="1" source="I3D60cO1Wd3O6cVHsPJO-62" target="I3D60cO1Wd3O6cVHsPJO-68" edge="1">
          <mxGeometry relative="1" as="geometry">
            <mxPoint x="662.0344827586207" y="875" as="sourcePoint" />
            <mxPoint x="672" y="788.5" as="targetPoint" />
          </mxGeometry>
        </mxCell>
        <mxCell id="I3D60cO1Wd3O6cVHsPJO-62" value="Devolver medidores substituídos" style="rounded=1;whiteSpace=wrap;html=1;shadow=0;labelBackgroundColor=none;strokeWidth=1;fontFamily=Verdana;fontSize=8;align=center;" parent="1" vertex="1">
          <mxGeometry x="639" y="874" width="70" height="37" as="geometry" />
        </mxCell>
        <mxCell id="I3D60cO1Wd3O6cVHsPJO-67" style="edgeStyle=orthogonalEdgeStyle;rounded=0;orthogonalLoop=1;jettySize=auto;html=1;exitX=1;exitY=0.5;exitDx=0;exitDy=0;entryX=0;entryY=0.5;entryDx=0;entryDy=0;fontSize=10;" parent="1" source="I3D60cO1Wd3O6cVHsPJO-52" target="I3D60cO1Wd3O6cVHsPJO-62" edge="1">
          <mxGeometry relative="1" as="geometry" />
        </mxCell>
        <mxCell id="I3D60cO1Wd3O6cVHsPJO-74" value="Selecionar clientes baseados no pop 067" style="swimlane;html=1;childLayout=stackLayout;horizontal=1;startSize=20;horizontalStack=0;rounded=0;shadow=0;labelBackgroundColor=none;strokeWidth=1;fontFamily=Verdana;fontSize=8;align=center;" parent="1" vertex="1">
          <mxGeometry x="182" y="957" width="680" height="173" as="geometry" />
        </mxCell>
        <mxCell id="I3D60cO1Wd3O6cVHsPJO-75" value="Gemed" style="swimlane;html=1;startSize=20;horizontal=0;" parent="I3D60cO1Wd3O6cVHsPJO-74" vertex="1">
          <mxGeometry y="20" width="680" height="150" as="geometry">
            <mxRectangle y="20" width="680" height="30" as="alternateBounds" />
          </mxGeometry>
        </mxCell>
        <mxCell id="I3D60cO1Wd3O6cVHsPJO-76" style="edgeStyle=orthogonalEdgeStyle;rounded=0;html=1;labelBackgroundColor=none;startArrow=none;startFill=0;startSize=5;endArrow=classicThin;endFill=1;endSize=5;jettySize=auto;orthogonalLoop=1;strokeWidth=1;fontFamily=Verdana;fontSize=8" parent="I3D60cO1Wd3O6cVHsPJO-75" source="I3D60cO1Wd3O6cVHsPJO-78" target="I3D60cO1Wd3O6cVHsPJO-79" edge="1">
          <mxGeometry relative="1" as="geometry" />
        </mxCell>
        <mxCell id="I3D60cO1Wd3O6cVHsPJO-77" value="" style="edgeStyle=orthogonalEdgeStyle;rounded=0;orthogonalLoop=1;jettySize=auto;html=1;" parent="I3D60cO1Wd3O6cVHsPJO-75" source="I3D60cO1Wd3O6cVHsPJO-78" target="I3D60cO1Wd3O6cVHsPJO-79" edge="1">
          <mxGeometry relative="1" as="geometry" />
        </mxCell>
        <mxCell id="I3D60cO1Wd3O6cVHsPJO-78" value="" style="ellipse;whiteSpace=wrap;html=1;rounded=0;shadow=0;labelBackgroundColor=none;strokeWidth=1;fontFamily=Verdana;fontSize=8;align=center;fillColor=#6d8764;fontColor=#ffffff;strokeColor=#3A5431;" parent="I3D60cO1Wd3O6cVHsPJO-75" vertex="1">
          <mxGeometry x="36" y="60" width="30" height="30" as="geometry" />
        </mxCell>
        <mxCell id="vjkhycGocfXqffDEfwFu-34" value="" style="edgeStyle=orthogonalEdgeStyle;rounded=0;orthogonalLoop=1;jettySize=auto;html=1;" parent="I3D60cO1Wd3O6cVHsPJO-75" source="I3D60cO1Wd3O6cVHsPJO-79" target="I3D60cO1Wd3O6cVHsPJO-80" edge="1">
          <mxGeometry relative="1" as="geometry" />
        </mxCell>
        <mxCell id="I3D60cO1Wd3O6cVHsPJO-79" value="Selecionar filtros na tela de substituição do Prax" style="rounded=1;whiteSpace=wrap;html=1;shadow=0;labelBackgroundColor=none;strokeWidth=1;fontFamily=Verdana;fontSize=8;align=center;" parent="I3D60cO1Wd3O6cVHsPJO-75" vertex="1">
          <mxGeometry x="96" y="53.5" width="70" height="43.5" as="geometry" />
        </mxCell>
        <mxCell id="I3D60cO1Wd3O6cVHsPJO-80" value="Consultar clientes " style="rounded=1;whiteSpace=wrap;html=1;shadow=0;labelBackgroundColor=none;strokeWidth=1;fontFamily=Verdana;fontSize=8;align=center;" parent="I3D60cO1Wd3O6cVHsPJO-75" vertex="1">
          <mxGeometry x="199" y="56.5" width="71" height="37" as="geometry" />
        </mxCell>
        <mxCell id="I3D60cO1Wd3O6cVHsPJO-81" value="" style="ellipse;whiteSpace=wrap;html=1;rounded=0;shadow=0;labelBackgroundColor=none;strokeWidth=2;fontFamily=Verdana;fontSize=8;align=center;fillColor=#e51400;fontColor=#ffffff;strokeColor=#B20000;" parent="I3D60cO1Wd3O6cVHsPJO-75" vertex="1">
          <mxGeometry x="522" y="60" width="30" height="30" as="geometry" />
        </mxCell>
        <mxCell id="I3D60cO1Wd3O6cVHsPJO-82" style="edgeStyle=orthogonalEdgeStyle;rounded=0;html=1;labelBackgroundColor=none;startArrow=none;startFill=0;startSize=5;endArrow=classicThin;endFill=1;endSize=5;jettySize=auto;orthogonalLoop=1;strokeWidth=1;fontFamily=Verdana;fontSize=8" parent="I3D60cO1Wd3O6cVHsPJO-75" source="I3D60cO1Wd3O6cVHsPJO-80" target="I3D60cO1Wd3O6cVHsPJO-83" edge="1">
          <mxGeometry relative="1" as="geometry">
            <mxPoint x="320" y="70" as="targetPoint" />
          </mxGeometry>
        </mxCell>
        <mxCell id="I3D60cO1Wd3O6cVHsPJO-95" style="edgeStyle=orthogonalEdgeStyle;rounded=0;orthogonalLoop=1;jettySize=auto;html=1;fontSize=10;" parent="I3D60cO1Wd3O6cVHsPJO-75" source="I3D60cO1Wd3O6cVHsPJO-83" target="I3D60cO1Wd3O6cVHsPJO-85" edge="1">
          <mxGeometry relative="1" as="geometry" />
        </mxCell>
        <mxCell id="I3D60cO1Wd3O6cVHsPJO-83" value="Selecionar baseado pela idade" style="rounded=1;whiteSpace=wrap;html=1;shadow=0;labelBackgroundColor=none;strokeWidth=1;fontFamily=Verdana;fontSize=8;align=center;" parent="I3D60cO1Wd3O6cVHsPJO-75" vertex="1">
          <mxGeometry x="301" y="56.5" width="70" height="37" as="geometry" />
        </mxCell>
        <mxCell id="I3D60cO1Wd3O6cVHsPJO-84" style="edgeStyle=orthogonalEdgeStyle;rounded=0;orthogonalLoop=1;jettySize=auto;html=1;fontSize=10;entryX=0;entryY=0.5;entryDx=0;entryDy=0;" parent="I3D60cO1Wd3O6cVHsPJO-75" source="I3D60cO1Wd3O6cVHsPJO-85" target="I3D60cO1Wd3O6cVHsPJO-81" edge="1">
          <mxGeometry relative="1" as="geometry">
            <mxPoint x="600" y="77" as="targetPoint" />
          </mxGeometry>
        </mxCell>
        <mxCell id="I3D60cO1Wd3O6cVHsPJO-85" value="Gerar OS baseada na qtd. planejada" style="rounded=1;whiteSpace=wrap;html=1;shadow=0;labelBackgroundColor=none;strokeWidth=1;fontFamily=Verdana;fontSize=8;align=center;" parent="I3D60cO1Wd3O6cVHsPJO-75" vertex="1">
          <mxGeometry x="408" y="56.5" width="70" height="37" as="geometry" />
        </mxCell>
        <mxCell id="vjkhycGocfXqffDEfwFu-33" value="" style="edgeStyle=orthogonalEdgeStyle;rounded=0;orthogonalLoop=1;jettySize=auto;html=1;" parent="1" source="vjkhycGocfXqffDEfwFu-19" target="I3D60cO1Wd3O6cVHsPJO-32" edge="1">
          <mxGeometry relative="1" as="geometry" />
        </mxCell>
        <mxCell id="vjkhycGocfXqffDEfwFu-19" value="Dvidiir total por 5" style="rounded=1;whiteSpace=wrap;html=1;shadow=0;labelBackgroundColor=none;strokeWidth=1;fontFamily=Verdana;fontSize=8;align=center;" parent="1" vertex="1">
          <mxGeometry x="413" y="360" width="70" height="37" as="geometry" />
        </mxCell>
        <mxCell id="vjkhycGocfXqffDEfwFu-23" style="edgeStyle=orthogonalEdgeStyle;rounded=0;orthogonalLoop=1;jettySize=auto;html=1;" parent="1" source="vjkhycGocfXqffDEfwFu-1" target="vjkhycGocfXqffDEfwFu-19" edge="1">
          <mxGeometry relative="1" as="geometry" />
        </mxCell>
      </root>
    </mxGraphModel>
  </diagram>
  <diagram id="IhILbxjatICdThepEMBQ" name="Variaveis">
    <mxGraphModel dx="956" dy="503" grid="1" gridSize="10" guides="1" tooltips="1" connect="1" arrows="1" fold="1" page="1" pageScale="1" pageWidth="827" pageHeight="1169" math="0" shadow="0">
      <root>
        <mxCell id="0" />
        <mxCell id="1" parent="0" />
        <mxCell id="FDosXykALLRxF3Eo5EBW-10" style="edgeStyle=orthogonalEdgeStyle;rounded=0;orthogonalLoop=1;jettySize=auto;html=1;entryX=0;entryY=0.5;entryDx=0;entryDy=0;fontSize=10;" parent="1" source="FDosXykALLRxF3Eo5EBW-1" target="FDosXykALLRxF3Eo5EBW-5" edge="1">
          <mxGeometry relative="1" as="geometry" />
        </mxCell>
        <mxCell id="FDosXykALLRxF3Eo5EBW-11" style="edgeStyle=orthogonalEdgeStyle;rounded=0;orthogonalLoop=1;jettySize=auto;html=1;exitX=0.667;exitY=-0.033;exitDx=0;exitDy=0;entryX=0.25;entryY=1;entryDx=0;entryDy=0;fontSize=10;exitPerimeter=0;" parent="1" source="FDosXykALLRxF3Eo5EBW-1" target="FDosXykALLRxF3Eo5EBW-8" edge="1">
          <mxGeometry relative="1" as="geometry" />
        </mxCell>
        <mxCell id="FDosXykALLRxF3Eo5EBW-12" style="edgeStyle=orthogonalEdgeStyle;rounded=0;orthogonalLoop=1;jettySize=auto;html=1;exitX=0.456;exitY=0.017;exitDx=0;exitDy=0;fontSize=10;exitPerimeter=0;" parent="1" source="FDosXykALLRxF3Eo5EBW-1" target="FDosXykALLRxF3Eo5EBW-3" edge="1">
          <mxGeometry relative="1" as="geometry">
            <Array as="points">
              <mxPoint x="409" y="170" />
              <mxPoint x="410" y="170" />
            </Array>
          </mxGeometry>
        </mxCell>
        <mxCell id="FDosXykALLRxF3Eo5EBW-13" style="edgeStyle=orthogonalEdgeStyle;rounded=0;orthogonalLoop=1;jettySize=auto;html=1;exitX=0.25;exitY=0;exitDx=0;exitDy=0;fontSize=10;" parent="1" source="FDosXykALLRxF3Eo5EBW-1" target="FDosXykALLRxF3Eo5EBW-9" edge="1">
          <mxGeometry relative="1" as="geometry">
            <Array as="points">
              <mxPoint x="380" y="135" />
              <mxPoint x="295" y="135" />
            </Array>
          </mxGeometry>
        </mxCell>
        <mxCell id="FDosXykALLRxF3Eo5EBW-14" style="edgeStyle=orthogonalEdgeStyle;rounded=0;orthogonalLoop=1;jettySize=auto;html=1;exitX=0;exitY=0.25;exitDx=0;exitDy=0;fontSize=10;entryX=1;entryY=0.5;entryDx=0;entryDy=0;" parent="1" source="FDosXykALLRxF3Eo5EBW-1" target="zm_WBuuer3XmYERxZB_Y-8" edge="1">
          <mxGeometry relative="1" as="geometry">
            <mxPoint x="280" y="175" as="targetPoint" />
          </mxGeometry>
        </mxCell>
        <mxCell id="FDosXykALLRxF3Eo5EBW-15" style="edgeStyle=orthogonalEdgeStyle;rounded=0;orthogonalLoop=1;jettySize=auto;html=1;exitX=0.146;exitY=1.03;exitDx=0;exitDy=0;fontSize=10;exitPerimeter=0;" parent="1" source="FDosXykALLRxF3Eo5EBW-1" target="FDosXykALLRxF3Eo5EBW-6" edge="1">
          <mxGeometry relative="1" as="geometry" />
        </mxCell>
        <mxCell id="FDosXykALLRxF3Eo5EBW-16" style="edgeStyle=orthogonalEdgeStyle;rounded=0;orthogonalLoop=1;jettySize=auto;html=1;exitX=0.5;exitY=1;exitDx=0;exitDy=0;fontSize=10;" parent="1" source="FDosXykALLRxF3Eo5EBW-1" target="FDosXykALLRxF3Eo5EBW-7" edge="1">
          <mxGeometry relative="1" as="geometry" />
        </mxCell>
        <mxCell id="FDosXykALLRxF3Eo5EBW-18" style="edgeStyle=orthogonalEdgeStyle;rounded=0;orthogonalLoop=1;jettySize=auto;html=1;fontSize=10;exitX=0.75;exitY=1;exitDx=0;exitDy=0;" parent="1" source="FDosXykALLRxF3Eo5EBW-1" target="FDosXykALLRxF3Eo5EBW-17" edge="1">
          <mxGeometry relative="1" as="geometry">
            <mxPoint x="450" y="300" as="sourcePoint" />
            <Array as="points">
              <mxPoint x="448" y="300" />
              <mxPoint x="500" y="300" />
            </Array>
          </mxGeometry>
        </mxCell>
        <mxCell id="zm_WBuuer3XmYERxZB_Y-7" style="edgeStyle=orthogonalEdgeStyle;rounded=0;orthogonalLoop=1;jettySize=auto;html=1;entryX=0;entryY=0.5;entryDx=0;entryDy=0;exitX=1;exitY=0.25;exitDx=0;exitDy=0;" edge="1" parent="1" source="FDosXykALLRxF3Eo5EBW-1" target="zm_WBuuer3XmYERxZB_Y-3">
          <mxGeometry relative="1" as="geometry" />
        </mxCell>
        <mxCell id="zm_WBuuer3XmYERxZB_Y-10" style="edgeStyle=orthogonalEdgeStyle;rounded=0;orthogonalLoop=1;jettySize=auto;html=1;exitX=0.008;exitY=0.58;exitDx=0;exitDy=0;entryX=1;entryY=0.5;entryDx=0;entryDy=0;exitPerimeter=0;" edge="1" parent="1" source="FDosXykALLRxF3Eo5EBW-1" target="zm_WBuuer3XmYERxZB_Y-2">
          <mxGeometry relative="1" as="geometry" />
        </mxCell>
        <mxCell id="zm_WBuuer3XmYERxZB_Y-11" style="edgeStyle=orthogonalEdgeStyle;rounded=0;orthogonalLoop=1;jettySize=auto;html=1;exitX=0;exitY=0.75;exitDx=0;exitDy=0;entryX=1;entryY=0.5;entryDx=0;entryDy=0;" edge="1" parent="1" source="FDosXykALLRxF3Eo5EBW-1" target="zm_WBuuer3XmYERxZB_Y-1">
          <mxGeometry relative="1" as="geometry">
            <Array as="points">
              <mxPoint x="326" y="245" />
              <mxPoint x="326" y="278" />
            </Array>
          </mxGeometry>
        </mxCell>
        <mxCell id="zm_WBuuer3XmYERxZB_Y-13" style="edgeStyle=orthogonalEdgeStyle;rounded=0;orthogonalLoop=1;jettySize=auto;html=1;entryX=0;entryY=0.5;entryDx=0;entryDy=0;" edge="1" parent="1" source="FDosXykALLRxF3Eo5EBW-1" target="zm_WBuuer3XmYERxZB_Y-4">
          <mxGeometry relative="1" as="geometry">
            <Array as="points">
              <mxPoint x="496" y="250" />
              <mxPoint x="496" y="281" />
            </Array>
          </mxGeometry>
        </mxCell>
        <mxCell id="FDosXykALLRxF3Eo5EBW-1" value="Substituição de medidores" style="rounded=1;whiteSpace=wrap;html=1;fontSize=10;" parent="1" vertex="1">
          <mxGeometry x="350" y="170" width="130" height="100" as="geometry" />
        </mxCell>
        <mxCell id="FDosXykALLRxF3Eo5EBW-3" value="Fabricante" style="rounded=1;whiteSpace=wrap;html=1;fontSize=10;" parent="1" vertex="1">
          <mxGeometry x="367" y="60" width="86" height="40" as="geometry" />
        </mxCell>
        <mxCell id="FDosXykALLRxF3Eo5EBW-5" value="Volume medido" style="rounded=1;whiteSpace=wrap;html=1;fontSize=10;" parent="1" vertex="1">
          <mxGeometry x="516" y="190" width="94" height="60" as="geometry" />
        </mxCell>
        <mxCell id="FDosXykALLRxF3Eo5EBW-6" value="Tipo de medidor" style="rounded=1;whiteSpace=wrap;html=1;fontSize=10;" parent="1" vertex="1">
          <mxGeometry x="263" y="335" width="100" height="30" as="geometry" />
        </mxCell>
        <mxCell id="FDosXykALLRxF3Eo5EBW-7" value="Local da cidade instalado(área de risco)" style="rounded=1;whiteSpace=wrap;html=1;fontSize=10;" parent="1" vertex="1">
          <mxGeometry x="367" y="334" width="96" height="40" as="geometry" />
        </mxCell>
        <mxCell id="FDosXykALLRxF3Eo5EBW-8" value="Padrão do imóvel" style="rounded=1;whiteSpace=wrap;html=1;fontSize=10;" parent="1" vertex="1">
          <mxGeometry x="461" y="60" width="100" height="40" as="geometry" />
        </mxCell>
        <mxCell id="FDosXykALLRxF3Eo5EBW-9" value="Fraudes/Ocorrências" style="rounded=1;whiteSpace=wrap;html=1;fontSize=10;" parent="1" vertex="1">
          <mxGeometry x="235" y="60" width="120" height="40" as="geometry" />
        </mxCell>
        <mxCell id="FDosXykALLRxF3Eo5EBW-17" value="Tipo de tarifa" style="rounded=1;whiteSpace=wrap;html=1;fontSize=10;" parent="1" vertex="1">
          <mxGeometry x="473" y="334" width="84" height="26" as="geometry" />
        </mxCell>
        <mxCell id="zm_WBuuer3XmYERxZB_Y-1" value="Categoria do Imóvel" style="rounded=1;whiteSpace=wrap;html=1;fontSize=10;" vertex="1" parent="1">
          <mxGeometry x="211" y="258" width="90" height="40" as="geometry" />
        </mxCell>
        <mxCell id="zm_WBuuer3XmYERxZB_Y-2" value="Alteração de titularidade" style="rounded=1;whiteSpace=wrap;html=1;fontSize=10;" vertex="1" parent="1">
          <mxGeometry x="210" y="208" width="90" height="40" as="geometry" />
        </mxCell>
        <mxCell id="zm_WBuuer3XmYERxZB_Y-3" value="Ocorrência de abastecimento" style="rounded=1;whiteSpace=wrap;html=1;fontSize=10;" vertex="1" parent="1">
          <mxGeometry x="516" y="125" width="90" height="60" as="geometry" />
        </mxCell>
        <mxCell id="zm_WBuuer3XmYERxZB_Y-4" value="Volume total medido" style="rounded=1;whiteSpace=wrap;html=1;fontSize=10;" vertex="1" parent="1">
          <mxGeometry x="519" y="258" width="80" height="46" as="geometry" />
        </mxCell>
        <mxCell id="zm_WBuuer3XmYERxZB_Y-8" value="Vida útil" style="rounded=1;whiteSpace=wrap;html=1;fontSize=10;" vertex="1" parent="1">
          <mxGeometry x="210" y="148" width="90" height="44" as="geometry" />
        </mxCell>
      </root>
    </mxGraphModel>
  </diagram>
  <diagram id="bTRrTnN0uMvNsOaMaW_R" name="TO BE">
    <mxGraphModel dx="956" dy="503" grid="1" gridSize="10" guides="1" tooltips="1" connect="1" arrows="1" fold="1" page="1" pageScale="1" pageWidth="827" pageHeight="1169" math="0" shadow="0">
      <root>
        <mxCell id="0" />
        <mxCell id="1" parent="0" />
        <mxCell id="3kYYL3OVHDEBsz7bONT1-1" value="Processo de planejamento de compras (TO BE)" style="swimlane;html=1;childLayout=stackLayout;horizontal=1;startSize=20;horizontalStack=0;rounded=0;shadow=0;labelBackgroundColor=none;strokeWidth=1;fontFamily=Verdana;fontSize=8;align=center;" vertex="1" parent="1">
          <mxGeometry x="21" y="167" width="660" height="117" as="geometry" />
        </mxCell>
        <mxCell id="3kYYL3OVHDEBsz7bONT1-2" value="Gemed" style="swimlane;html=1;startSize=20;horizontal=0;" vertex="1" parent="3kYYL3OVHDEBsz7bONT1-1">
          <mxGeometry y="20" width="660" height="90" as="geometry">
            <mxRectangle y="20" width="680" height="30" as="alternateBounds" />
          </mxGeometry>
        </mxCell>
        <mxCell id="zJd511x5gNu9l-3vtSon-60" value="" style="edgeStyle=orthogonalEdgeStyle;rounded=0;orthogonalLoop=1;jettySize=auto;html=1;" edge="1" parent="3kYYL3OVHDEBsz7bONT1-2" source="3kYYL3OVHDEBsz7bONT1-5" target="zJd511x5gNu9l-3vtSon-59">
          <mxGeometry relative="1" as="geometry" />
        </mxCell>
        <mxCell id="3kYYL3OVHDEBsz7bONT1-5" value="" style="ellipse;whiteSpace=wrap;html=1;rounded=0;shadow=0;labelBackgroundColor=none;strokeWidth=1;fontFamily=Verdana;fontSize=8;align=center;fillColor=#6d8764;fontColor=#ffffff;strokeColor=#3A5431;" vertex="1" parent="3kYYL3OVHDEBsz7bONT1-2">
          <mxGeometry x="25" y="36" width="30" height="30" as="geometry" />
        </mxCell>
        <mxCell id="3kYYL3OVHDEBsz7bONT1-10" value="" style="ellipse;whiteSpace=wrap;html=1;rounded=0;shadow=0;labelBackgroundColor=none;strokeWidth=2;fontFamily=Verdana;fontSize=8;align=center;fillColor=#e51400;fontColor=#ffffff;strokeColor=#B20000;" vertex="1" parent="3kYYL3OVHDEBsz7bONT1-2">
          <mxGeometry x="426" y="35.75" width="30" height="30" as="geometry" />
        </mxCell>
        <mxCell id="zJd511x5gNu9l-3vtSon-54" value="" style="edgeStyle=orthogonalEdgeStyle;rounded=0;orthogonalLoop=1;jettySize=auto;html=1;" edge="1" parent="3kYYL3OVHDEBsz7bONT1-2" source="3kYYL3OVHDEBsz7bONT1-13" target="3kYYL3OVHDEBsz7bONT1-10">
          <mxGeometry relative="1" as="geometry" />
        </mxCell>
        <mxCell id="3kYYL3OVHDEBsz7bONT1-13" value="&lt;div&gt;Realizar compra&lt;/div&gt;" style="rounded=1;whiteSpace=wrap;html=1;shadow=0;labelBackgroundColor=none;strokeWidth=1;fontFamily=Verdana;fontSize=8;align=center;" vertex="1" parent="3kYYL3OVHDEBsz7bONT1-2">
          <mxGeometry x="331" y="32" width="59" height="37" as="geometry" />
        </mxCell>
        <mxCell id="zJd511x5gNu9l-3vtSon-58" value="" style="edgeStyle=orthogonalEdgeStyle;rounded=0;orthogonalLoop=1;jettySize=auto;html=1;" edge="1" parent="3kYYL3OVHDEBsz7bONT1-2" source="zJd511x5gNu9l-3vtSon-55" target="3kYYL3OVHDEBsz7bONT1-13">
          <mxGeometry relative="1" as="geometry" />
        </mxCell>
        <mxCell id="zJd511x5gNu9l-3vtSon-55" value="&lt;font style=&quot;font-size: 10px;&quot; face=&quot;Verdana&quot;&gt;&lt;font style=&quot;font-size: 9px;&quot;&gt;&lt;font style=&quot;font-size: 8px;&quot;&gt;Quantidade custo x benefício&lt;/font&gt;&lt;/font&gt;&lt;/font&gt;" style="shape=process;whiteSpace=wrap;html=1;backgroundOutline=1;" vertex="1" parent="3kYYL3OVHDEBsz7bONT1-2">
          <mxGeometry x="179" y="29" width="110" height="44" as="geometry" />
        </mxCell>
        <mxCell id="zJd511x5gNu9l-3vtSon-61" value="" style="edgeStyle=orthogonalEdgeStyle;rounded=0;orthogonalLoop=1;jettySize=auto;html=1;" edge="1" parent="3kYYL3OVHDEBsz7bONT1-2" source="zJd511x5gNu9l-3vtSon-59" target="zJd511x5gNu9l-3vtSon-55">
          <mxGeometry relative="1" as="geometry" />
        </mxCell>
        <mxCell id="zJd511x5gNu9l-3vtSon-59" value="Selecionar toda a Cagece" style="rounded=1;whiteSpace=wrap;html=1;shadow=0;labelBackgroundColor=none;strokeWidth=1;fontFamily=Verdana;fontSize=8;align=center;" vertex="1" parent="3kYYL3OVHDEBsz7bONT1-2">
          <mxGeometry x="90" y="32.5" width="59" height="37" as="geometry" />
        </mxCell>
        <mxCell id="zJd511x5gNu9l-3vtSon-1" value="Processo de seleção e distribuição de medidores (TO BE)" style="swimlane;html=1;childLayout=stackLayout;horizontal=1;startSize=20;horizontalStack=0;rounded=0;shadow=0;labelBackgroundColor=none;strokeWidth=1;fontFamily=Verdana;fontSize=8;align=center;" vertex="1" parent="1">
          <mxGeometry x="20" y="306" width="790" height="204" as="geometry" />
        </mxCell>
        <mxCell id="zJd511x5gNu9l-3vtSon-2" value="Gemed" style="swimlane;html=1;startSize=20;horizontal=0;" vertex="1" parent="zJd511x5gNu9l-3vtSon-1">
          <mxGeometry y="20" width="790" height="110" as="geometry">
            <mxRectangle y="20" width="680" height="30" as="alternateBounds" />
          </mxGeometry>
        </mxCell>
        <mxCell id="zJd511x5gNu9l-3vtSon-71" value="" style="edgeStyle=orthogonalEdgeStyle;rounded=0;orthogonalLoop=1;jettySize=auto;html=1;" edge="1" parent="zJd511x5gNu9l-3vtSon-2" source="zJd511x5gNu9l-3vtSon-5" target="zJd511x5gNu9l-3vtSon-68">
          <mxGeometry relative="1" as="geometry" />
        </mxCell>
        <mxCell id="zJd511x5gNu9l-3vtSon-5" value="" style="ellipse;whiteSpace=wrap;html=1;rounded=0;shadow=0;labelBackgroundColor=none;strokeWidth=1;fontFamily=Verdana;fontSize=8;align=center;fillColor=#6d8764;fontColor=#ffffff;strokeColor=#3A5431;" vertex="1" parent="zJd511x5gNu9l-3vtSon-2">
          <mxGeometry x="23" y="27" width="30" height="30" as="geometry" />
        </mxCell>
        <mxCell id="zJd511x5gNu9l-3vtSon-8" value="" style="ellipse;whiteSpace=wrap;html=1;rounded=0;shadow=0;labelBackgroundColor=none;strokeWidth=2;fontFamily=Verdana;fontSize=8;align=center;fillColor=#e51400;fontColor=#ffffff;strokeColor=#B20000;" vertex="1" parent="zJd511x5gNu9l-3vtSon-2">
          <mxGeometry x="711" y="27" width="30" height="30" as="geometry" />
        </mxCell>
        <mxCell id="zJd511x5gNu9l-3vtSon-96" value="" style="edgeStyle=orthogonalEdgeStyle;rounded=0;orthogonalLoop=1;jettySize=auto;html=1;entryX=0;entryY=0.5;entryDx=0;entryDy=0;" edge="1" parent="zJd511x5gNu9l-3vtSon-2" source="zJd511x5gNu9l-3vtSon-10" target="zJd511x5gNu9l-3vtSon-81">
          <mxGeometry relative="1" as="geometry" />
        </mxCell>
        <mxCell id="zJd511x5gNu9l-3vtSon-10" value="Selecionar clientes baseado na estratégia de distribuição" style="rounded=1;whiteSpace=wrap;html=1;shadow=0;labelBackgroundColor=none;strokeWidth=1;fontFamily=Verdana;fontSize=8;align=center;" vertex="1" parent="zJd511x5gNu9l-3vtSon-2">
          <mxGeometry x="270" y="20" width="73" height="44" as="geometry" />
        </mxCell>
        <mxCell id="zJd511x5gNu9l-3vtSon-12" value="Entregar medidores" style="rounded=1;whiteSpace=wrap;html=1;shadow=0;labelBackgroundColor=none;strokeWidth=1;fontFamily=Verdana;fontSize=8;align=center;" vertex="1" parent="zJd511x5gNu9l-3vtSon-2">
          <mxGeometry x="526" y="23" width="58" height="37" as="geometry" />
        </mxCell>
        <mxCell id="zJd511x5gNu9l-3vtSon-78" value="" style="edgeStyle=orthogonalEdgeStyle;rounded=0;orthogonalLoop=1;jettySize=auto;html=1;" edge="1" parent="zJd511x5gNu9l-3vtSon-2" source="zJd511x5gNu9l-3vtSon-68" target="zJd511x5gNu9l-3vtSon-77">
          <mxGeometry relative="1" as="geometry" />
        </mxCell>
        <mxCell id="zJd511x5gNu9l-3vtSon-68" value="Rodar ML de previsão substituição" style="rounded=1;whiteSpace=wrap;html=1;shadow=0;labelBackgroundColor=none;strokeWidth=1;fontFamily=Verdana;fontSize=8;align=center;" vertex="1" parent="zJd511x5gNu9l-3vtSon-2">
          <mxGeometry x="73" y="23.5" width="70" height="37" as="geometry" />
        </mxCell>
        <mxCell id="zJd511x5gNu9l-3vtSon-79" value="" style="edgeStyle=orthogonalEdgeStyle;rounded=0;orthogonalLoop=1;jettySize=auto;html=1;" edge="1" parent="zJd511x5gNu9l-3vtSon-2" source="zJd511x5gNu9l-3vtSon-77" target="zJd511x5gNu9l-3vtSon-10">
          <mxGeometry relative="1" as="geometry" />
        </mxCell>
        <mxCell id="zJd511x5gNu9l-3vtSon-77" value="Rodar ML de previsão de consumo" style="rounded=1;whiteSpace=wrap;html=1;shadow=0;labelBackgroundColor=none;strokeWidth=1;fontFamily=Verdana;fontSize=8;align=center;" vertex="1" parent="zJd511x5gNu9l-3vtSon-2">
          <mxGeometry x="171" y="23.5" width="70" height="37" as="geometry" />
        </mxCell>
        <mxCell id="zJd511x5gNu9l-3vtSon-98" value="" style="edgeStyle=orthogonalEdgeStyle;rounded=0;orthogonalLoop=1;jettySize=auto;html=1;entryX=0;entryY=0.5;entryDx=0;entryDy=0;" edge="1" parent="zJd511x5gNu9l-3vtSon-2" source="zJd511x5gNu9l-3vtSon-81" target="zJd511x5gNu9l-3vtSon-82">
          <mxGeometry relative="1" as="geometry" />
        </mxCell>
        <mxCell id="zJd511x5gNu9l-3vtSon-81" value="Simular impactos nos ind. perdas" style="rounded=1;whiteSpace=wrap;html=1;shadow=0;labelBackgroundColor=none;strokeWidth=1;fontFamily=Verdana;fontSize=8;align=center;" vertex="1" parent="zJd511x5gNu9l-3vtSon-2">
          <mxGeometry x="369" y="22.25" width="65" height="39.5" as="geometry" />
        </mxCell>
        <mxCell id="zJd511x5gNu9l-3vtSon-86" style="edgeStyle=orthogonalEdgeStyle;rounded=0;orthogonalLoop=1;jettySize=auto;html=1;entryX=0.5;entryY=1;entryDx=0;entryDy=0;exitX=0.5;exitY=1;exitDx=0;exitDy=0;" edge="1" parent="zJd511x5gNu9l-3vtSon-2" source="zJd511x5gNu9l-3vtSon-82" target="zJd511x5gNu9l-3vtSon-10">
          <mxGeometry relative="1" as="geometry" />
        </mxCell>
        <mxCell id="zJd511x5gNu9l-3vtSon-87" value="" style="edgeStyle=orthogonalEdgeStyle;rounded=0;orthogonalLoop=1;jettySize=auto;html=1;" edge="1" parent="zJd511x5gNu9l-3vtSon-2" source="zJd511x5gNu9l-3vtSon-82" target="zJd511x5gNu9l-3vtSon-12">
          <mxGeometry relative="1" as="geometry" />
        </mxCell>
        <mxCell id="zJd511x5gNu9l-3vtSon-82" value="" style="rhombus;whiteSpace=wrap;html=1;" vertex="1" parent="zJd511x5gNu9l-3vtSon-2">
          <mxGeometry x="465" y="28" width="29" height="27" as="geometry" />
        </mxCell>
        <mxCell id="zJd511x5gNu9l-3vtSon-83" value="Aceitar &lt;font style=&quot;font-size: 8px;&quot;&gt;&lt;font style=&quot;font-size: 8px;&quot;&gt;&lt;font style=&quot;font-size: 8px;&quot;&gt;&lt;font style=&quot;font-size: 8px;&quot;&gt;ganhos ?&lt;br style=&quot;font-size: 8px;&quot;&gt;&lt;/font&gt;&lt;/font&gt;&lt;/font&gt;&lt;/font&gt;" style="text;html=1;strokeColor=none;fillColor=none;align=center;verticalAlign=middle;whiteSpace=wrap;rounded=0;fontSize=8;fontFamily=Verdana;" vertex="1" parent="zJd511x5gNu9l-3vtSon-2">
          <mxGeometry x="441" y="12" width="72.5" height="8.75" as="geometry" />
        </mxCell>
        <mxCell id="zJd511x5gNu9l-3vtSon-84" value="Não" style="text;html=1;strokeColor=none;fillColor=none;align=center;verticalAlign=middle;whiteSpace=wrap;rounded=0;fontSize=8;fontFamily=Verdana;" vertex="1" parent="zJd511x5gNu9l-3vtSon-2">
          <mxGeometry x="440" y="55" width="32" height="15.75" as="geometry" />
        </mxCell>
        <mxCell id="zJd511x5gNu9l-3vtSon-95" value="" style="edgeStyle=orthogonalEdgeStyle;rounded=0;orthogonalLoop=1;jettySize=auto;html=1;" edge="1" parent="zJd511x5gNu9l-3vtSon-2" source="zJd511x5gNu9l-3vtSon-93" target="zJd511x5gNu9l-3vtSon-8">
          <mxGeometry relative="1" as="geometry" />
        </mxCell>
        <mxCell id="zJd511x5gNu9l-3vtSon-93" value="Realizar testes de bancada" style="rounded=1;whiteSpace=wrap;html=1;shadow=0;labelBackgroundColor=none;strokeWidth=1;fontFamily=Verdana;fontSize=8;align=center;" vertex="1" parent="zJd511x5gNu9l-3vtSon-2">
          <mxGeometry x="612" y="23.75" width="70" height="37" as="geometry" />
        </mxCell>
        <mxCell id="zJd511x5gNu9l-3vtSon-99" value="Sim" style="text;html=1;strokeColor=none;fillColor=none;align=center;verticalAlign=middle;whiteSpace=wrap;rounded=0;fontSize=8;fontFamily=Verdana;" vertex="1" parent="zJd511x5gNu9l-3vtSon-2">
          <mxGeometry x="490" y="22.25" width="32" height="15.75" as="geometry" />
        </mxCell>
        <mxCell id="zJd511x5gNu9l-3vtSon-92" value="" style="edgeStyle=orthogonalEdgeStyle;rounded=0;orthogonalLoop=1;jettySize=auto;html=1;" edge="1" parent="zJd511x5gNu9l-3vtSon-1" source="zJd511x5gNu9l-3vtSon-12" target="zJd511x5gNu9l-3vtSon-15">
          <mxGeometry relative="1" as="geometry" />
        </mxCell>
        <mxCell id="zJd511x5gNu9l-3vtSon-94" value="" style="edgeStyle=orthogonalEdgeStyle;rounded=0;orthogonalLoop=1;jettySize=auto;html=1;" edge="1" parent="zJd511x5gNu9l-3vtSon-1" source="zJd511x5gNu9l-3vtSon-20" target="zJd511x5gNu9l-3vtSon-93">
          <mxGeometry relative="1" as="geometry" />
        </mxCell>
        <mxCell id="zJd511x5gNu9l-3vtSon-13" value="UN" style="swimlane;horizontal=0;whiteSpace=wrap;html=1;fontSize=10;startSize=20;" vertex="1" parent="zJd511x5gNu9l-3vtSon-1">
          <mxGeometry y="130" width="790" height="70" as="geometry" />
        </mxCell>
        <mxCell id="zJd511x5gNu9l-3vtSon-15" value="Substituir medidores" style="rounded=1;whiteSpace=wrap;html=1;shadow=0;labelBackgroundColor=none;strokeWidth=1;fontFamily=Verdana;fontSize=8;align=center;" vertex="1" parent="zJd511x5gNu9l-3vtSon-13">
          <mxGeometry x="526" y="22" width="58" height="37" as="geometry" />
        </mxCell>
        <mxCell id="zJd511x5gNu9l-3vtSon-20" value="Devolver medidores substituídos" style="rounded=1;whiteSpace=wrap;html=1;shadow=0;labelBackgroundColor=none;strokeWidth=1;fontFamily=Verdana;fontSize=8;align=center;" vertex="1" parent="zJd511x5gNu9l-3vtSon-13">
          <mxGeometry x="612" y="22" width="70" height="37" as="geometry" />
        </mxCell>
        <mxCell id="zJd511x5gNu9l-3vtSon-21" style="edgeStyle=orthogonalEdgeStyle;rounded=0;orthogonalLoop=1;jettySize=auto;html=1;exitX=1;exitY=0.5;exitDx=0;exitDy=0;entryX=0;entryY=0.5;entryDx=0;entryDy=0;fontSize=10;" edge="1" parent="zJd511x5gNu9l-3vtSon-13" source="zJd511x5gNu9l-3vtSon-15" target="zJd511x5gNu9l-3vtSon-20">
          <mxGeometry relative="1" as="geometry" />
        </mxCell>
        <mxCell id="zJd511x5gNu9l-3vtSon-22" value="Processo da quantidade custo X benefício (TO BE)" style="swimlane;html=1;childLayout=stackLayout;horizontal=1;startSize=20;horizontalStack=0;rounded=0;shadow=0;labelBackgroundColor=none;strokeWidth=1;fontFamily=Verdana;fontSize=8;align=center;" vertex="1" parent="1">
          <mxGeometry x="22" y="26" width="660" height="124" as="geometry" />
        </mxCell>
        <mxCell id="zJd511x5gNu9l-3vtSon-23" value="Gemed" style="swimlane;html=1;startSize=20;horizontal=0;" vertex="1" parent="zJd511x5gNu9l-3vtSon-22">
          <mxGeometry y="20" width="660" height="100" as="geometry">
            <mxRectangle y="20" width="680" height="30" as="alternateBounds" />
          </mxGeometry>
        </mxCell>
        <mxCell id="zJd511x5gNu9l-3vtSon-24" style="edgeStyle=orthogonalEdgeStyle;rounded=0;html=1;labelBackgroundColor=none;startArrow=none;startFill=0;startSize=5;endArrow=classicThin;endFill=1;endSize=5;jettySize=auto;orthogonalLoop=1;strokeWidth=1;fontFamily=Verdana;fontSize=8" edge="1" parent="zJd511x5gNu9l-3vtSon-23" source="zJd511x5gNu9l-3vtSon-26" target="zJd511x5gNu9l-3vtSon-28">
          <mxGeometry relative="1" as="geometry" />
        </mxCell>
        <mxCell id="zJd511x5gNu9l-3vtSon-25" value="" style="edgeStyle=orthogonalEdgeStyle;rounded=0;orthogonalLoop=1;jettySize=auto;html=1;" edge="1" parent="zJd511x5gNu9l-3vtSon-23" source="zJd511x5gNu9l-3vtSon-26" target="zJd511x5gNu9l-3vtSon-28">
          <mxGeometry relative="1" as="geometry" />
        </mxCell>
        <mxCell id="zJd511x5gNu9l-3vtSon-26" value="" style="ellipse;whiteSpace=wrap;html=1;rounded=0;shadow=0;labelBackgroundColor=none;strokeWidth=1;fontFamily=Verdana;fontSize=8;align=center;fillColor=#6d8764;fontColor=#ffffff;strokeColor=#3A5431;" vertex="1" parent="zJd511x5gNu9l-3vtSon-23">
          <mxGeometry x="25" y="28" width="30" height="30" as="geometry" />
        </mxCell>
        <mxCell id="zJd511x5gNu9l-3vtSon-27" style="edgeStyle=orthogonalEdgeStyle;rounded=0;orthogonalLoop=1;jettySize=auto;html=1;exitX=1;exitY=0.5;exitDx=0;exitDy=0;entryX=0;entryY=0.5;entryDx=0;entryDy=0;" edge="1" parent="zJd511x5gNu9l-3vtSon-23" source="zJd511x5gNu9l-3vtSon-28" target="zJd511x5gNu9l-3vtSon-39">
          <mxGeometry relative="1" as="geometry" />
        </mxCell>
        <mxCell id="zJd511x5gNu9l-3vtSon-28" value="Rodar ML de previsão substituição" style="rounded=1;whiteSpace=wrap;html=1;shadow=0;labelBackgroundColor=none;strokeWidth=1;fontFamily=Verdana;fontSize=8;align=center;" vertex="1" parent="zJd511x5gNu9l-3vtSon-23">
          <mxGeometry x="75" y="24.5" width="70" height="37" as="geometry" />
        </mxCell>
        <mxCell id="zJd511x5gNu9l-3vtSon-29" value="" style="ellipse;whiteSpace=wrap;html=1;rounded=0;shadow=0;labelBackgroundColor=none;strokeWidth=2;fontFamily=Verdana;fontSize=8;align=center;fillColor=#e51400;fontColor=#ffffff;strokeColor=#B20000;" vertex="1" parent="zJd511x5gNu9l-3vtSon-23">
          <mxGeometry x="603" y="27.75" width="30" height="30" as="geometry" />
        </mxCell>
        <mxCell id="zJd511x5gNu9l-3vtSon-32" value="" style="edgeStyle=orthogonalEdgeStyle;rounded=0;orthogonalLoop=1;jettySize=auto;html=1;" edge="1" parent="zJd511x5gNu9l-3vtSon-23" source="zJd511x5gNu9l-3vtSon-33" target="zJd511x5gNu9l-3vtSon-37">
          <mxGeometry relative="1" as="geometry" />
        </mxCell>
        <mxCell id="zJd511x5gNu9l-3vtSon-33" value="Selecionar tipo de medidor" style="rounded=1;whiteSpace=wrap;html=1;shadow=0;labelBackgroundColor=none;strokeWidth=1;fontFamily=Verdana;fontSize=8;align=center;" vertex="1" parent="zJd511x5gNu9l-3vtSon-23">
          <mxGeometry x="340" y="24" width="59" height="37" as="geometry" />
        </mxCell>
        <mxCell id="zJd511x5gNu9l-3vtSon-34" value="" style="edgeStyle=orthogonalEdgeStyle;rounded=0;orthogonalLoop=1;jettySize=auto;html=1;" edge="1" parent="zJd511x5gNu9l-3vtSon-23" source="zJd511x5gNu9l-3vtSon-35" target="zJd511x5gNu9l-3vtSon-33">
          <mxGeometry relative="1" as="geometry" />
        </mxCell>
        <mxCell id="zJd511x5gNu9l-3vtSon-35" value="Selecionar qtd. a ser substituida" style="rounded=1;whiteSpace=wrap;html=1;shadow=0;labelBackgroundColor=none;strokeWidth=1;fontFamily=Verdana;fontSize=8;align=center;" vertex="1" parent="zJd511x5gNu9l-3vtSon-23">
          <mxGeometry x="256" y="26.5" width="61" height="32.5" as="geometry" />
        </mxCell>
        <mxCell id="zJd511x5gNu9l-3vtSon-36" style="edgeStyle=orthogonalEdgeStyle;rounded=0;orthogonalLoop=1;jettySize=auto;html=1;entryX=0;entryY=0.5;entryDx=0;entryDy=0;" edge="1" parent="zJd511x5gNu9l-3vtSon-23" source="zJd511x5gNu9l-3vtSon-37" target="zJd511x5gNu9l-3vtSon-41">
          <mxGeometry relative="1" as="geometry" />
        </mxCell>
        <mxCell id="zJd511x5gNu9l-3vtSon-37" value="Simular impactos nos ind. perdas" style="rounded=1;whiteSpace=wrap;html=1;shadow=0;labelBackgroundColor=none;strokeWidth=1;fontFamily=Verdana;fontSize=8;align=center;" vertex="1" parent="zJd511x5gNu9l-3vtSon-23">
          <mxGeometry x="425" y="22.5" width="65" height="39.5" as="geometry" />
        </mxCell>
        <mxCell id="zJd511x5gNu9l-3vtSon-38" value="" style="edgeStyle=orthogonalEdgeStyle;rounded=0;orthogonalLoop=1;jettySize=auto;html=1;" edge="1" parent="zJd511x5gNu9l-3vtSon-23" source="zJd511x5gNu9l-3vtSon-39" target="zJd511x5gNu9l-3vtSon-35">
          <mxGeometry relative="1" as="geometry" />
        </mxCell>
        <mxCell id="zJd511x5gNu9l-3vtSon-39" value="Rodar ML de previsão de consumo" style="rounded=1;whiteSpace=wrap;html=1;shadow=0;labelBackgroundColor=none;strokeWidth=1;fontFamily=Verdana;fontSize=8;align=center;" vertex="1" parent="zJd511x5gNu9l-3vtSon-23">
          <mxGeometry x="164" y="24" width="70" height="37" as="geometry" />
        </mxCell>
        <mxCell id="zJd511x5gNu9l-3vtSon-40" style="edgeStyle=orthogonalEdgeStyle;rounded=0;orthogonalLoop=1;jettySize=auto;html=1;entryX=0.5;entryY=1;entryDx=0;entryDy=0;" edge="1" parent="zJd511x5gNu9l-3vtSon-23" source="zJd511x5gNu9l-3vtSon-41" target="zJd511x5gNu9l-3vtSon-35">
          <mxGeometry relative="1" as="geometry">
            <Array as="points">
              <mxPoint x="530" y="88" />
              <mxPoint x="287" y="88" />
              <mxPoint x="287" y="79" />
            </Array>
          </mxGeometry>
        </mxCell>
        <mxCell id="zJd511x5gNu9l-3vtSon-41" value="" style="rhombus;whiteSpace=wrap;html=1;" vertex="1" parent="zJd511x5gNu9l-3vtSon-23">
          <mxGeometry x="515" y="29.25" width="29" height="27" as="geometry" />
        </mxCell>
        <mxCell id="zJd511x5gNu9l-3vtSon-42" value="Aceitar &lt;font style=&quot;font-size: 8px;&quot;&gt;&lt;font style=&quot;font-size: 8px;&quot;&gt;&lt;font style=&quot;font-size: 8px;&quot;&gt;&lt;font style=&quot;font-size: 8px;&quot;&gt;ganhos ?&lt;br style=&quot;font-size: 8px;&quot;&gt;&lt;/font&gt;&lt;/font&gt;&lt;/font&gt;&lt;/font&gt;" style="text;html=1;strokeColor=none;fillColor=none;align=center;verticalAlign=middle;whiteSpace=wrap;rounded=0;fontSize=8;" vertex="1" parent="zJd511x5gNu9l-3vtSon-23">
          <mxGeometry x="500.5" y="18.25" width="60" height="8.75" as="geometry" />
        </mxCell>
        <mxCell id="zJd511x5gNu9l-3vtSon-43" value="" style="edgeStyle=orthogonalEdgeStyle;rounded=0;orthogonalLoop=1;jettySize=auto;html=1;entryX=0;entryY=0.5;entryDx=0;entryDy=0;" edge="1" parent="zJd511x5gNu9l-3vtSon-23" source="zJd511x5gNu9l-3vtSon-41" target="zJd511x5gNu9l-3vtSon-29">
          <mxGeometry relative="1" as="geometry">
            <mxPoint x="581" y="42.5" as="targetPoint" />
          </mxGeometry>
        </mxCell>
        <mxCell id="zJd511x5gNu9l-3vtSon-44" value="Não" style="text;html=1;strokeColor=none;fillColor=none;align=center;verticalAlign=middle;whiteSpace=wrap;rounded=0;fontSize=10;" vertex="1" parent="zJd511x5gNu9l-3vtSon-23">
          <mxGeometry x="483" y="49.5" width="60" height="30" as="geometry" />
        </mxCell>
        <mxCell id="zJd511x5gNu9l-3vtSon-45" value="Sim" style="text;html=1;strokeColor=none;fillColor=none;align=center;verticalAlign=middle;whiteSpace=wrap;rounded=0;fontSize=10;" vertex="1" parent="zJd511x5gNu9l-3vtSon-23">
          <mxGeometry x="538" y="25.25" width="60" height="14.75" as="geometry" />
        </mxCell>
      </root>
    </mxGraphModel>
  </diagram>
</mxfile>
=======
<mxfile host="app.diagrams.net" modified="2023-02-16T00:10:56.870Z" agent="5.0 (Windows)" etag="AOtHrRwF3Kl2SvKNzAUk" version="20.8.18" type="device" pages="2"><diagram name="Page-1" id="c7488fd3-1785-93aa-aadb-54a6760d102a">7V1bd5u4Fv41fpwsg7j5MYnbzjlr2mY1Z26PMig2HYw8IDdJf/2RjGSDxEUBc0niPDiWAAH723dtyTNwu336lMDd5jMOUDQz58HTDCxnpmlbHv1kHc9Zh7kwso51EgZZV67jPvyJeOec9+7DAKWFEwnGEQl3xU4fxzHySaEPJgl+LJ72gKPiXXdwjZSOex9Gau+fYUA2vNeYz08HfkXhesNv7dn8wAr6/6wTvI/5/WIco+zIFoph+KnpBgb4MdcFPszAbYIxyb5tn25RxKgqKJZd97Hi6PGRExQTnQvMlYU8w1ys5mZgee7DL3yEHzDaczJ8hn6Cdwn2UZpiBidiz71fpSQk+3B2C2bX7uETHI9uURAGOKHgZS9JngVN08dwG0FKDnCzIduIdhr0q78Jo+A3+Iz37KFTQuknWjcbnIQ/cUygOJkeTgjnFvp2+TPu2ZW0m/Ue6I8C3jrSmTUiuELRzRGkWxzhhB46wMTGT/A/R8TZHR/o4B/hNowYI/+BkgDGkHfz5/BoE0bhOqbffUp6RMe7UbEQxEUJQU+5Lo7NJ4S3iCTP9BRx1ON8wkXI5c3HEz864pRNjhVNwaOQy8D6OPSJGegXzg+avGEqvPEJUag1Qa7BjeOiEqySPZspKJSOJsUMu4ZifPRvVMvAeB2hlw8PpNFhRHkkhgTdMA5MFViOL9IOKcNTQEEBVW68iROywWscw+jDqVeSmBxyTfJCcb1m+lbq+xhGAtk89jZtozgQV/gRTNPQ/98mjLMD/DIja+Uu+o4IeeZtuCeYdp1e5DeMd0dGayPAzbzH2T/F+8RHFefY3E7BZI2qxnGycxggtRycoAiS8EfRGnUR6P+ApTP3vxp/BuCr4//xa3r3368lCr8z65SiUoJejsVKSTIkHgOQv+rhakkfRdTdYSR+3IQE3e/g4VUfqcNVJOD45u6Byq0Ye2YCJ/Bcx+LX5fofDn/HG+eOgGvbAoaeHRCmSNuSOkVD6qh6G2io7bPA7iiw3zFr+R0mB2d2u0ugwgcneI1mXpiGs9MdM8MsgmY7V9Yi9+cqGLplGLo9aU5xs2E1JaVv8vwXv/7Q+Js1rmzRXD7lDy6feSsHoDHvpnHz2rSUMnZHjcovvcMhfZQjO5gLcDXP/ZlF19gujpeZBT5EPgKSRgVgUTtO9rLKOOfw0lxFESxDKpDhah8mtVHUu9QGR2U8tDbAq+8svWDOD8TLG+p6x8rMvQ5nhdehKtBTSP4SY9Dvuato63QRa4hrzuTAVasTDbVj9aJ2LNO7yvOZV+pIvFjtOODKMXLDyrytp4ZoFAWfc6ft2Alp9csAV0oo2BLjZwNqqjja5MKhG5fqRBsDu7zm2VxeZBvWXNhaLZf3xmSGrDeX1ypgbcw9wVVjuL2m1dldem85ifYqvJ32rQpVasNnt1T1j5XOcEdJX5xgOiHzdwEYPadcWN6TtT2OMorltXTx72p1X2rHLNMp6DZ5mkMOHRy75vSXmj09TrQUU/cN+TgOQj+kvPUmHHzFFumwXaW9AmJ+8OgE9eXR6wGokZ6jpN+xr9unNZsCvVrttvEV78xDxAgV+lShMHTucBoSygP02AoTgrfVsOWdBzHGNceCMN10s0NJSF+XgbJMNni72qd3p66bwlTkGhL0yNj8Bu9JFDKOODLG83aF2dNS/GAUoejTY0EvKnw2bU4yi57PgNm+8lAQKKx0H24VbqIUIJJoFxxGjlXe6+RdClVlZtmGQRBV+dRF89cLIJYUdgAFEKd0GrMvQMpk24kI59cCLM6/eywO/JIeOPmanmDMd08Haonj9Nv68P8WzLwFoxdO08PE+PLHoTAiQf6eiutB9c/AR3FD+gLZPfnl0+SKcAvX6HoQ4Z0XecVcKLxSOuW96ItXVEP+5VjvMEms+lGpxQyFIVTsaCJsjOLot0iNdYvhah17QYMmP14njjO6xm3lrrdrFr06yjlXc2BZnunanmPOJe9NN3/mShbFNKSBzpQwcyxTuo9V/1xAfq7C+f2EGuqM4hKlPkwIszVvMrSoz3zZbhE0Y+FNaubQGGfmsDS5YExdd+lm/7uWcVTIv5QwN5x+EvO2UbSvQp/1qjeM2lKE2/JShPdXwtlJF8klnKanKp/+ajjLYVcnnvso5GwgWw1H9lvN2Y12l8rKVpWVtaaglksbDUSucP6cml+uPnLtOr/1fGUi5cRYKCI7hgtxwfIMWIpnmdIkeN82soYrJliyWQ6bmgcaHbYOtQs9wiYl381xcQOquL3y5HsbVIAcX6iO1JDZOzBK9k7DfOlGpYATsDEsNfupSpPTapa5OEtazV3UFLtZ4q3PHPy6Uvkb8AZImol3uWTNhOJ23CIKDiipFxs0UQZKMpt6JdKXLEWnLIUlJLIxS+H2VckFppulAANkKfjok11zWk6YS3ZkoOwI0I2oxTxZc/X8qHWb4HUnON4aHNbbylGce21qK6PREKAVC1rHznZY6kqNL2iN/fAwNfQvCa7ov30cBjBAb9RbboPioojixFasilqGfCoERehYkOxHIaMQdQ3mK5giigtThtuMLpA9A36rtcptwKb4ymir8VKpZ9YbwG8rR3nu9VU98IAtBU6OMbLedi4e+NQ8cN1UYbZh2tlThUCe/JJ4r+fpLrENXE4nfYhJgtbvYg1MK1fQKs6glNqVYbe6AJ21SotgTFkd118xWjcJdzxdCe9nMsCRSubdYSe0HVXCvyEqLj8PEk79ycylPGwNuIKxD4NXu8FND9Ju2VVr/8eSdkcN/n//oiCWT7vKqdUG/GTBVnK1HYhdn5o1dHdQNHqrvrPVOY1CEJYiQhn4HcmHU1HzI4aR5AOoCA4aY9klQbTYDfXdejQNGALLbsJw2KW93ecpRty6q00hf2sfSMSTjVGO2KK5cXOwofZbLGfUcZaNVewPYbRE/sw7M3VD3i5ZXVYTCI82peFOCfmmnUH6l1fdmMXuilpFVsKTt+QYNi3hLKbEDm0VwZk3itFeT6qb0nL6SWk5Tuki0mOCq+WmbI60btAxgOY+bGfjStW5XKIfOKI+WdG1PO7An+0wELzZiZmGmjVp906npG5p2Nh5HCsz4LL0FhvJai/11FYro3oSrjrLVjWNyuZNc8Iq/1xGTUrlUrTYKPyGV1TXrmg3VsYZfSV3XHVjmakULboVued3X7ToXqZMB5oyFdLRaAhc3eDEXYxqCNQS5TGs/wWO4mNOqfrllRctuhVb+U+zaNFVi4gLjhmlaFbCNo+ZV0YoV84af9CMfdwl8ElhpbcRX7WBfdpVjp46fXmL43QfEdk7v0B68qUrd6Afa57Nu+wVf+5axgYemFoto1cC+MUxH9UxFxzS6Al6oKMnOMlaxoXdmSPPUAfXP8pAF+Wuv/TUTT+UbKv87isxmjz2ydWWet1/F+QV1pbqy6Lu/odeP/u3jlxb6qkJ1Uttqba0T6+21FOrH19NbWlDBl2/ttR6ucdMm6dfhc+Ei/3ixGccsJ+k+/B/</diagram><diagram id="IhILbxjatICdThepEMBQ" name="Página-2">1ZnLjpswFIafBqlddBRjyGWZa7tI1aqpOpmlB5zgFjiRMQn06WuDCRA60XQxsrtBPr9tcL7fF05w8DIpPnJyij5DSGPHHYWFg1eO605mnrwqoawFT0VKOHIW1hJqhR37TbU40mrOQpr1GgqAWLBTXwwgTWkgehrhHC79ZgeI+089kSMdCLuAxEP1kYUiqtWpO2n1T5Qdo+bJaDyraxLSNNa/JItICJeOhNcOXnIAUZeSYkljxa7hUvfbvFB7HRinqXhNh80Ksn35a77dfis2eA3+evH4ocGcibL5xTSUAHQIXERwhJTE61ZdcMjTkKrbjmTUttkCnKSIpPiTClFqN0kuQEqRSGJdK0fMy73uXwVPKnjwm3BVdCtXpY4OkAp9U6TieuxqwC8y0VIGOQ/oPRB6bhF+pOJOO//qnJzxFBIqxyf7cRoTwc79cRA9947Xdq09sqAd+he3kBG3Cib2nfJT440st0apoOy6Vvn74Ppdi5H9Bk+NGuyaNFgvwFdZbIFT2KhT2KhT/5NPM6M+edb4dF1d1jrlGXXKt8UpZLtPY6M+je05o6x3amLUqaktr4vW+4TMGlXf90ziXD9plz9ngomcOUvszCfVFYPKo6nKLWnIQuAyL771t3VPIb9ETNDdiVSILjI/7zv1d+5nygUt7pMfgtIdsK8TSp3uo4mOL23yjJqMOOokzuPRG7HFA7Yb8sxZQFJBLcTn9fB5pul5A3o/WEikombkYi5YfIfhyAhDNLZtCvpDiBDnSbuSrZuHvmsbw/GA4Xd2ut0QreN4OxfdmWmOkwHHLQSk+stWLetAru6KKEszQWISwrvq7EGckgY2Z1kA761jfbt3mmc9HbD+SkLeOcvVhSXVVorP9N5Wasc2YPw4mg0Pc05y9YHA3XwJgNdw52nAiH3vRrebgXGaaLgZdDdV+dLMDsQ6jLeT8i3XuQzbDzRVXecrF17/AQ==</diagram></mxfile>
>>>>>>> parent of 66d67f0 (Adicionado variaveis substituição medidor.drawio)
